<svg id="visual" viewBox="0 0 900 600" width="" height="" xmlns="http://www.w3.org/2000/svg" xmlns:xlink="http://www.w3.org/1999/xlink" version="1.1">
<path d="M0 31L13.7 32C27.3 33 54.7 35 82 36C109.3 37 136.7 37 163.8 37C191 37 218 37 245.2 38C272.3 39 299.7 41 327 40C354.3 39 381.7 35 409 34C436.3 33 463.7 35 491 36C518.3 37 545.7 37 573 39C600.3 41 627.7 45 654.8 45C682 45 709 41 736.2 39C763.3 37 790.7 37 818 39C845.3 41 872.7 45 886.3 47L900 49L900 0L886.3 0C872.7 0 845.3 0 818 0C790.7 0 763.3 0 736.2 0C709 0 682 0 654.8 0C627.7 0 600.3 0 573 0C545.7 0 518.3 0 491 0C463.7 0 436.3 0 409 0C381.7 0 354.3 0 327 0C299.7 0 272.3 0 245.2 0C218 0 191 0 163.8 0C136.7 0 109.3 0 82 0C54.7 0 27.3 0 13.7 0L0 0Z" fill="#715df2">
</path>
<path d="M0 109L13.7 110C27.3 111 54.7 113 82 109C109.3 105 136.7 95 163.8 94C191 93 218 101 245.2 107C272.3 113 299.7 117 327 117C354.3 117 381.7 113 409 109C436.3 105 463.7 101 491 97C518.3 93 545.7 89 573 90C600.3 91 627.7 97 654.8 101C682 105 709 107 736.2 111C763.3 115 790.7 121 818 123C845.3 125 872.7 123 886.3 122L900 121L900 47L886.3 45C872.7 43 845.3 39 818 37C790.7 35 763.3 35 736.2 37C709 39 682 43 654.8 43C627.7 43 600.3 39 573 37C545.7 35 518.3 35 491 34C463.7 33 436.3 31 409 32C381.7 33 354.3 37 327 38C299.7 39 272.3 37 245.2 36C218 35 191 35 163.8 35C136.7 35 109.3 35 82 34C54.7 33 27.3 31 13.7 30L0 29Z" fill="#00aaff">
</path>
<path d="M0 169L13.7 170C27.3 171 54.7 173 82 165C109.3 157 136.7 139 163.8 136C191 133 218 145 245.2 155C272.3 165 299.7 173 327 173C354.3 173 381.7 165 409 157C436.3 149 463.7 141 491 134C518.3 127 545.7 121 573 123C600.3 125 627.7 135 654.8 143C682 151 709 157 736.2 162C763.3 167 790.7 171 818 170C845.3 169 872.7 163 886.3 160L900 157L900 119L886.3 120C872.7 121 845.3 123 818 121C790.7 119 763.3 113 736.2 109C709 105 682 103 654.8 99C627.7 95 600.3 89 573 88C545.7 87 518.3 91 491 95C463.7 99 436.3 103 409 107C381.7 111 354.3 115 327 115C299.7 115 272.3 111 245.2 105C218 99 191 91 163.8 92C136.7 93 109.3 103 82 107C54.7 111 27.3 109 13.7 108L0 107Z" fill="#00ddff">
</path>
<path d="M0 277L13.7 283C27.3 289 54.7 301 82 294C109.3 287 136.7 261 163.8 255C191 249 218 263 245.2 275C272.3 287 299.7 297 327 306C354.3 315 381.7 323 409 322C436.3 321 463.7 311 491 303C518.3 295 545.7 289 573 291C600.3 293 627.7 303 654.8 303C682 303 709 293 736.2 287C763.3 281 790.7 279 818 278C845.3 277 872.7 277 886.3 277L900 277L900 155L886.3 158C872.7 161 845.3 167 818 168C790.7 169 763.3 165 736.2 160C709 155 682 149 654.8 141C627.7 133 600.3 123 573 121C545.7 119 518.3 125 491 132C463.7 139 436.3 147 409 155C381.7 163 354.3 171 327 171C299.7 171 272.3 163 245.2 153C218 143 191 131 163.8 134C136.7 137 109.3 155 82 163C54.7 171 27.3 169 13.7 168L0 167Z" fill="#4bffef">
</path>
<path d="M0 313L13.7 318C27.3 323 54.7 333 82 328C109.3 323 136.7 303 163.8 297C191 291 218 299 245.2 308C272.3 317 299.7 327 327 340C354.3 353 381.7 369 409 371C436.3 373 463.7 361 491 353C518.3 345 545.7 341 573 340C600.3 339 627.7 341 654.8 340C682 339 709 335 736.2 329C763.3 323 790.7 315 818 311C845.3 307 872.7 307 886.3 307L900 307L900 275L886.3 275C872.7 275 845.3 275 818 276C790.7 277 763.3 279 736.2 285C709 291 682 301 654.8 301C627.7 301 600.3 291 573 289C545.7 287 518.3 293 491 301C463.7 309 436.3 319 409 320C381.7 321 354.3 313 327 304C299.7 295 272.3 285 245.2 273C218 261 191 247 163.8 253C136.7 259 109.3 285 82 292C54.7 299 27.3 287 13.7 281L0 275Z" fill="#4bffef">
</path>
<path d="M0 379L13.7 380C27.3 381 54.7 383 82 379C109.3 375 136.7 365 163.8 361C191 357 218 359 245.2 366C272.3 373 299.7 385 327 399C354.3 413 381.7 429 409 432C436.3 435 463.7 425 491 415C518.3 405 545.7 395 573 395C600.3 395 627.7 405 654.8 407C682 409 709 403 736.2 392C763.3 381 790.7 365 818 359C845.3 353 872.7 357 886.3 359L900 361L900 305L886.3 305C872.7 305 845.3 305 818 309C790.7 313 763.3 321 736.2 327C709 333 682 337 654.8 338C627.7 339 600.3 337 573 338C545.7 339 518.3 343 491 351C463.7 359 436.3 371 409 369C381.7 367 354.3 351 327 338C299.7 325 272.3 315 245.2 306C218 297 191 289 163.8 295C136.7 301 109.3 321 82 326C54.7 331 27.3 321 13.7 316L0 311Z" fill="#00ddff">
</path>
<path d="M0 517L13.7 518C27.3 519 54.7 521 82 524C109.3 527 136.7 531 163.8 526C191 521 218 507 245.2 504C272.3 501 299.7 509 327 516C354.3 523 381.7 529 409 530C436.3 531 463.7 527 491 519C518.3 511 545.7 499 573 496C600.3 493 627.7 499 654.8 502C682 505 709 505 736.2 506C763.3 507 790.7 509 818 512C845.3 515 872.7 519 886.3 521L900 523L900 359L886.3 357C872.7 355 845.3 351 818 357C790.7 363 763.3 379 736.2 390C709 401 682 407 654.8 405C627.7 403 600.3 393 573 393C545.7 393 518.3 403 491 413C463.7 423 436.3 433 409 430C381.7 427 354.3 411 327 397C299.7 383 272.3 371 245.2 364C218 357 191 355 163.8 359C136.7 363 109.3 373 82 377C54.7 381 27.3 379 13.7 378L0 377Z" fill="#00aaff">
</path>
<path d="M0 601L13.7 601C27.3 601 54.7 601 82 601C109.3 601 136.7 601 163.8 601C191 601 218 601 245.2 601C272.3 601 299.7 601 327 601C354.3 601 381.7 601 409 601C436.3 601 463.7 601 491 601C518.3 601 545.7 601 573 601C600.3 601 627.7 601 654.8 601C682 601 709 601 736.2 601C763.3 601 790.7 601 818 601C845.3 601 872.7 601 886.3 601L900 601L900 521L886.3 519C872.7 517 845.3 513 818 510C790.7 507 763.3 505 736.2 504C709 503 682 503 654.8 500C627.7 497 600.3 491 573 494C545.7 497 518.3 509 491 517C463.7 525 436.3 529 409 528C381.7 527 354.3 521 327 514C299.7 507 272.3 499 245.2 502C218 505 191 519 163.8 524C136.7 529 109.3 525 82 522C54.7 519 27.3 517 13.7 516L0 515Z" fill="#715df2">
</path>
</svg>